#!OML:ASF E:\Steps\Project 1\Capture day 1\Session 2\Subject.ASF
:FULLY-SPECIFIED
:DEGREES
474
root 3.47739 18.777 7.29379 -154.738 -0.266542 176.932
lowerback -31.5406 -2.78374 -6.91655
upperback -2.77421 -2.23329 -0.499757
thorax 13.4567 -1.82001 2.18555
lowerneck -3.07082 -2.47337 -2.18847
upperneck -0.354333 -3.20718 4.15151
head 0.51577 -1.55129 1.61046
rclavicle -1.80894e-014 1.59028e-015
rhumerus -32.8308 -20.815 -79.5346
rradius 26.396
rwrist 3.10952
rhand -9.67112 -412.249
rfingers 7.12502
rthumb 16.3003 -441.584
lclavicle -1.80894e-014 1.59028e-015
lhumerus -30.6375 -0.29261 85.0861
lradius 20.8228
lwrist -2.90681
lhand -22.3063 -13.8322
lfingers 7.12502
lthumb 4.113 16.1078
rfemur -21.8534 7.02519 17.578
rtibia 9.16963
rfoot -22.1787 1.63071
rtoes -18.2422
lfemur -20.1939 -6.31094 -26.367
ltibia 10.144
lfoot -12.1862 1.11108
ltoes -24.2886
475
root 3.47778 18.7778 7.28522 -154.884 -0.343635 176.88
lowerback -31.4686 -2.81531 -7.03695
upperback -2.73122 -2.22274 -0.512663
thorax 13.4761 -1.81791 2.24267
lowerneck -3.23237 -2.59971 -2.06399
upperneck -0.648762 -3.36234 4.02056
head 0.451256 -1.62736 1.54379
rclavicle 1.74185e-014 1.19271e-015
rhumerus -32.7924 -20.0096 -79.9333
rradius 26.9528
rwrist 2.29012
rhand -9.67302 -412.563
rfingers 7.12502
rthumb 16.2985 -441.898
lclavicle 1.74185e-014 1.19271e-015
lhumerus -30.4102 -0.492223 85.1661
lradius 20.807
lwrist -2.83685
lhand -21.9747 -13.3357
lfingers 7.12502
lthumb 4.43318 16.5979
rfemur -21.5931 7.09732 17.5339
rtibia 9.08665
rfoot -22.1721 1.53301
rtoes -17.8579
lfemur -19.9225 -6.35877 -26.4125
ltibia 9.98821
lfoot -12.1161 1.11772
ltoes -24.4738
476
root 3.47902 18.7779 7.27537 -155.036 -0.408351 176.861
lowerback -31.326 -2.80962 -7.11779
upperback -2.756 -2.19626 -0.53008
thorax 13.3843 -1.80707 2.28381
lowerneck -3.40137 -2.69995 -1.97093
upperneck -0.767829 -3.49109 3.78011
head 0.439402 -1.69184 1.4475
rclavicle 7.72775e-015 1.98785e-015
rhumerus -32.8174 -19.6172 -80.1258
rradius 27.3155
rwrist 1.85162
rhand -9.35387 -413.1
rfingers 7.12502
rthumb 16.6058 -442.409
lclavicle 7.72775e-015 1.98785e-015
lhumerus -30.2784 -0.535725 85.2064
lradius 20.8055
lwrist -2.87087
lhand -21.8 -12.8494
lfingers 7.12502
lthumb 4.60188 17.0806
rfemur -21.3269 7.22076 17.5126
rtibia 8.97268
rfoot -22.1621 1.40161
rtoes -17.3679
lfemur -19.6075 -6.33536 -26.4295
ltibia 9.76423
lfoot -12.1004 1.10415
ltoes -24.8802
477
root 3.47921 18.7781 7.26814 -155.12 -0.498697 176.832
lowerback -31.2783 -2.7901 -7.18361
upperback -2.76951 -2.14776 -0.579533
thorax 13.3421 -1.78739 2.28689
lowerneck -3.13244 -2.6581 -2.00739
upperneck -0.895656 -3.4312 4.05015
head 0.359535 -1.66219 1.54477
rclavicle -2.17918e-014 1.15295e-014
rhumerus -32.6542 -19.9694 -80.0787
rradius 27.1326
rwrist 2.10909
rhand -9.33368 -412.86
rfingers 7.12502
rthumb 16.6252 -442.168
lclavicle -2.17918e-014 1.15295e-014
lhumerus -30.1799 -0.648495 85.221
lradius 20.866
lwrist -2.97114
lhand -21.9649 -12.9821
lfingers 7.12502
lthumb 4.44263 16.9513
rfemur -21.1226 7.26534 17.487
rtibia 8.83965
rfoot -22.1587 1.21261
rtoes -17.1489
lfemur -19.3786 -6.26434 -26.4675
ltibia 9.54539
lfoot -12.0269 1.03116
ltoes -25.1772
478
root 3.49473 18.7715 7.31066 -154.111 -1.16447 176.547
lowerback -31.6235 -3.10758 -7.66668
upperback -3.11736 -2.47275 -0.573428
thorax 13.1209 -1.9841 2.40559
lowerneck -2.945 -2.60728 -2.0015
upperneck -1.00257 -3.35892 4.25919
head 0.296995 -1.62602 1.61454
rclavicle 2.17669e-014 -3.57812e-015
rhumerus -32.4921 -20.2557 -80.087
rradius 27.007
rwrist 2.29455
rhand -9.74259 -411.896
rfingers 7.12502
rthumb 16.2315 -441.236
lclavicle 2.17669e-014 -3.57812e-015
lhumerus -30.0578 -0.856825 85.2012
lradius 20.9556
lwrist -3.14752
lhand -22.3407 -13.4043
lfingers 7.12502
lthumb 4.07981 16.5364
rfemur -22.4223 7.24996 17.138
rtibia 9.10222
rfoot -22.1438 0.312473
rtoes -17.4472
lfemur -21.0078 -6.21021 -26.4979
ltibia 10.2128
lfoot -11.7699 0.14037
ltoes -24.5521
479
root 3.49647 18.7749 7.30731 -154.151 -1.37555 176.644
lowerback -31.5957 -3.06973 -7.59362
upperback -3.1478 -2.45101 -0.615252
thorax 13.0686 -1.96961 2.33221
lowerneck -3.09892 -2.54361 -1.86894
upperneck -0.914497 -3.28037 4.04932
head 0.340594 -1.58668 1.52326
rclavicle 1.29459e-014 -1.70955e-014
rhumerus -32.4893 -20.1963 -80.1914
rradius 27.1258
rwrist 2.2205
rhand -10.1487 -411.494
rfingers 7.12502
rthumb 15.8405 -440.866
lclavicle 1.29459e-014 -1.70955e-014
lhumerus -30.0023 -1.12422 85.1884
lradius 21.0625
lwrist -3.15929
lhand -22.5261 -13.4141
lfingers 7.12502
lthumb 3.90072 16.5299
rfemur -22.2679 7.26177 17.3026
rtibia 8.9872
rfoot -22.1329 0.229863
rtoes -17.0401
lfemur -20.9043 -6.22963 -26.3219
ltibia 10.125
lfoot -11.6605 -0.0878926
ltoes -23.3471
